<svg xml:space="preserve" style="max-height: 500px" viewBox="277.79472 96.3781 914.1714 423.780175" y="0px" x="0px" xmlns:xlink="http://www.w3.org/1999/xlink" xmlns="http://www.w3.org/2000/svg" id="Layer_1" version="1.1" width="914.1714" height="423.780175">
<style type="text/css">
	.st0{fill:#FFFFFF;}
	.st1{fill:#EE4D2D;stroke:#CCCCCC;stroke-miterlimit:10;}
	.st2{fill:#EE4D2D;stroke:#CCCCCC;stroke-width:0.6862;stroke-miterlimit:10;}
	.st3{fill-rule:evenodd;clip-rule:evenodd;fill:#FFFFFF;}
	.st4{fill-rule:evenodd;clip-rule:evenodd;fill:#EE4D2D;}
	.st5{fill:#EE4D2D;}
</style>
<g>
	<g>
		<g>
			<path d="M693.64,405.53V203.08c0-4.2,3.4-7.6,7.6-7.6h68.36c38.48,0.5,69.79,31.84,69.79,69.86&#10;&#9;&#9;&#9;&#9;c0,38.03-31.32,69.36-69.82,69.86l-49.45,0.01v70.32c0,4.2-3.4,7.6-7.6,7.6h-11.28C697.04,413.12,693.64,409.72,693.64,405.53z&#10;&#9;&#9;&#9;&#9; M720.12,307.69l49.17,0c11.52,0,22.35-4.46,30.49-12.57c8.14-8.1,12.62-18.86,12.62-30.3c0-23.64-19.29-42.86-42.99-42.86&#10;&#9;&#9;&#9;&#9;h-49.29V307.69z" class="st3"/>
			<path d="M1013.65,473.8l51.75-88.91l-61.97-101.44c-1.86-3.04,0.33-6.93,3.89-6.93h25.09l49.84,80.83l48.13-80.83&#10;&#9;&#9;&#9;&#9;h23.15c3.53,0,5.72,3.84,3.92,6.88l-116.63,197.26h-23.23C1014.08,480.65,1011.89,476.84,1013.65,473.8z" class="st3"/>
			<path d="M955.45,404.49V392.8l-3.85,3.2c-12.46,10.37-28.39,16.08-44.83,16.08c-37.97,0-68.86-30.41-68.86-67.78&#10;&#9;&#9;&#9;&#9;c0-36.8,30.89-66.74,68.86-66.74c16.45,0,32.37,5.71,44.83,16.09l3.85,3.2v-11.69c0-4.2,3.4-7.6,7.6-7.6h15.76v134.52h-15.76&#10;&#9;&#9;&#9;&#9;C958.85,412.08,955.45,408.68,955.45,404.49z M906.58,302.8c-23.86,0-43.28,18.65-43.28,41.58c0,23.09,19.82,42.6,43.28,42.6&#10;&#9;&#9;&#9;&#9;c23.46,0,43.28-19.51,43.28-42.6C949.87,321.45,930.45,302.8,906.58,302.8z" class="st3"/>
		</g>
		<path d="M591.44,195.08h-26.09H362.32c-6.98,0-12.64-5.66-12.64-12.64c0-3.17,2.57-5.74,5.74-5.74h205.33&#10;&#9;&#9;&#9;c3.17,0,5.74-2.57,5.74-5.74v-20.7c0-7.42-6.36-13.24-13.75-12.59l-208.07,18.37c-14.84,1.29-26.24,13.71-26.24,28.61v38v126.38&#10;&#9;&#9;&#9;v35.62c0,15.86,12.86,28.72,28.72,28.72h244.27c15.86,0,28.72-12.86,28.72-28.72V223.8C620.16,207.94,607.3,195.08,591.44,195.08" class="st0"/>
	</g>
	<path d="M520.66,345.34c-1.81,14.81-10.84,26.67-24.84,32.61c-7.79,3.31-18.23,5.08-26.51,4.52&#10;&#9;&#9;c-12.87-0.49-24.97-3.6-36.12-9.29c-4.06-2.07-10.01-6.16-14.49-9.9c-1.02-0.85-1.55-1.61-0.56-2.99c1.05-1.57,5.19-7.56,5.85-8.55&#10;&#9;&#9;c0.88-1.34,2.33-1.41,3.66-0.37c0.18,0.14,1.53,1.19,1.8,1.39c10.73,8.35,24.57,14.62,39.96,15.2c19.4-0.26,33.47-8.9,35.98-22.28&#10;&#9;&#9;c2.77-14.74-8.99-27.39-31.65-34.44c-7.2-2.24-25.31-9.45-28.66-11.39c-15.78-9.2-23.14-21.26-22.09-36.11&#10;&#9;&#9;c1.6-20.58,20.81-36,45.19-36.1c11.57-0.02,22.42,2.52,32.09,6.57c3.56,1.49,10.19,5.04,12.55,6.79c1.65,1.2,1.52,2.55,0.87,3.6&#10;&#9;&#9;c-0.96,1.6-3.83,6.06-4.98,7.91c-0.84,1.27-1.88,1.42-3.37,0.49c-12.47-8.32-25.29-11.14-36.83-11.37&#10;&#9;&#9;c-16.65,0.33-29.21,10.15-30.03,23.63c-0.22,12.17,9.09,21,28.86,27.75C508.13,306.03,523.59,321.34,520.66,345.34" class="st5"/>
</g>
</svg>